<svg width="209" height="52" viewBox="0 0 209 52" fill="none" xmlns="http://www.w3.org/2000/svg">
<path d="M34.4318 39.4545C32.4621 39.4545 30.7339 38.9858 29.2472 38.0483C27.7699 37.1108 26.6146 35.7992 25.7812 34.1136C24.9574 32.428 24.5455 30.4583 24.5455 28.2045C24.5455 25.9318 24.9574 23.9479 25.7812 22.2528C26.6146 20.5578 27.7699 19.2415 29.2472 18.304C30.7339 17.3665 32.4621 16.8977 34.4318 16.8977C36.4015 16.8977 38.125 17.3665 39.6023 18.304C41.089 19.2415 42.2443 20.5578 43.0682 22.2528C43.9015 23.9479 44.3182 25.9318 44.3182 28.2045C44.3182 30.4583 43.9015 32.428 43.0682 34.1136C42.2443 35.7992 41.089 37.1108 39.6023 38.0483C38.125 38.9858 36.4015 39.4545 34.4318 39.4545ZM34.4318 36.4432C35.928 36.4432 37.1591 36.0597 38.125 35.2926C39.0909 34.5256 39.8059 33.517 40.2699 32.267C40.7339 31.017 40.9659 29.6629 40.9659 28.2045C40.9659 26.7462 40.7339 25.3873 40.2699 24.1278C39.8059 22.8684 39.0909 21.8504 38.125 21.0739C37.1591 20.2973 35.928 19.9091 34.4318 19.9091C32.9356 19.9091 31.7045 20.2973 30.7386 21.0739C29.7727 21.8504 29.0578 22.8684 28.5938 24.1278C28.1297 25.3873 27.8977 26.7462 27.8977 28.2045C27.8977 29.6629 28.1297 31.017 28.5938 32.267C29.0578 33.517 29.7727 34.5256 30.7386 35.2926C31.7045 36.0597 32.9356 36.4432 34.4318 36.4432ZM58.299 39.4545C56.2536 39.4545 54.4922 38.9716 53.0149 38.0057C51.5376 37.0398 50.4013 35.7093 49.6058 34.0142C48.8104 32.3191 48.4126 30.3826 48.4126 28.2045C48.4126 25.9886 48.8198 24.0331 49.6342 22.3381C50.4581 20.6335 51.6039 19.303 53.0717 18.3466C54.549 17.3807 56.2725 16.8977 58.2422 16.8977C59.7763 16.8977 61.1589 17.1818 62.3899 17.75C63.621 18.3182 64.6295 19.1136 65.4155 20.1364C66.2015 21.1591 66.6892 22.3523 66.8786 23.7159H63.5263C63.2706 22.7216 62.7024 21.8409 61.8217 21.0739C60.9505 20.2973 59.7763 19.9091 58.299 19.9091C56.9922 19.9091 55.8464 20.25 54.8615 20.9318C53.8861 21.6042 53.1238 22.5559 52.5746 23.7869C52.0348 25.0085 51.7649 26.4432 51.7649 28.0909C51.7649 29.7765 52.0301 31.2443 52.5604 32.4943C53.1001 33.7443 53.8577 34.715 54.8331 35.4062C55.8179 36.0975 56.9732 36.4432 58.299 36.4432C59.1702 36.4432 59.9609 36.2917 60.6712 35.9886C61.3814 35.6856 61.9827 35.25 62.4751 34.6818C62.9676 34.1136 63.3179 33.4318 63.5263 32.6364H66.8786C66.6892 33.9242 66.2204 35.0843 65.4723 36.1165C64.7337 37.1392 63.7536 37.9536 62.532 38.5597C61.3198 39.1562 59.9089 39.4545 58.299 39.4545ZM78.1996 39.5114C76.817 39.5114 75.5623 39.2509 74.4354 38.7301C73.3085 38.1998 72.4136 37.4375 71.7507 36.4432C71.0878 35.4394 70.7564 34.2273 70.7564 32.8068C70.7564 31.5568 71.0026 30.5436 71.495 29.767C71.9875 28.9811 72.6456 28.3655 73.4695 27.9205C74.2933 27.4754 75.2024 27.1439 76.1967 26.9261C77.2005 26.6989 78.209 26.5189 79.2223 26.3864C80.5481 26.2159 81.6229 26.0881 82.4467 26.0028C83.2801 25.9081 83.8861 25.7519 84.2649 25.5341C84.6532 25.3163 84.8473 24.9375 84.8473 24.3977V24.2841C84.8473 22.8826 84.4638 21.7936 83.6967 21.017C82.9392 20.2405 81.7886 19.8523 80.245 19.8523C78.6446 19.8523 77.3899 20.2027 76.4808 20.9034C75.5717 21.6042 74.9325 22.3523 74.5632 23.1477L71.3814 22.0114C71.9496 20.6856 72.7071 19.6534 73.6541 18.9148C74.6106 18.1667 75.6522 17.6458 76.7791 17.3523C77.9155 17.0492 79.0329 16.8977 80.1314 16.8977C80.8321 16.8977 81.6371 16.983 82.5462 17.1534C83.4647 17.3144 84.3501 17.6506 85.2024 18.1619C86.0642 18.6733 86.7791 19.4451 87.3473 20.4773C87.9155 21.5095 88.1996 22.892 88.1996 24.625V39H84.8473V36.0455H84.6768C84.4496 36.5189 84.0708 37.0256 83.5405 37.5653C83.0102 38.1051 82.3047 38.5644 81.424 38.9432C80.5433 39.322 79.4685 39.5114 78.1996 39.5114ZM78.7109 36.5C80.0367 36.5 81.1541 36.2396 82.0632 35.7188C82.9818 35.1979 83.6731 34.5256 84.1371 33.7017C84.6106 32.8778 84.8473 32.0114 84.8473 31.1023V28.0341C84.7053 28.2045 84.3928 28.3608 83.9098 28.5028C83.4363 28.6354 82.8871 28.7538 82.2621 28.858C81.6465 28.9527 81.0452 29.0379 80.4581 29.1136C79.8804 29.1799 79.4117 29.2367 79.0518 29.2841C78.1806 29.3977 77.3662 29.5824 76.6087 29.8381C75.8606 30.0843 75.2545 30.4583 74.7905 30.9602C74.3359 31.4527 74.1087 32.125 74.1087 32.9773C74.1087 34.142 74.5395 35.0227 75.4013 35.6193C76.2725 36.2064 77.3757 36.5 78.7109 36.5ZM97.6705 9.90909V39H94.3182V9.90909H97.6705Z" fill="#5196AD"/>
<path d="M115.515 39V9.90909H125.344C127.627 9.90909 129.492 10.321 130.941 11.1449C132.399 11.9593 133.479 13.0625 134.18 14.4545C134.88 15.8466 135.231 17.3996 135.231 19.1136C135.231 20.8277 134.88 22.3854 134.18 23.7869C133.488 25.1884 132.418 26.3059 130.969 27.1392C129.521 27.9631 127.665 28.375 125.401 28.375H118.356V25.25H125.288C126.85 25.25 128.105 24.9801 129.052 24.4403C129.999 23.9006 130.685 23.1714 131.112 22.2528C131.547 21.3248 131.765 20.2784 131.765 19.1136C131.765 17.9489 131.547 16.9072 131.112 15.9886C130.685 15.0701 129.994 14.3504 129.038 13.8295C128.081 13.2992 126.812 13.0341 125.231 13.0341H119.038V39H115.515ZM149.08 39.4545C147.111 39.4545 145.382 38.9858 143.896 38.0483C142.418 37.1108 141.263 35.7992 140.43 34.1136C139.606 32.428 139.194 30.4583 139.194 28.2045C139.194 25.9318 139.606 23.9479 140.43 22.2528C141.263 20.5578 142.418 19.2415 143.896 18.304C145.382 17.3665 147.111 16.8977 149.08 16.8977C151.05 16.8977 152.773 17.3665 154.251 18.304C155.737 19.2415 156.893 20.5578 157.717 22.2528C158.55 23.9479 158.967 25.9318 158.967 28.2045C158.967 30.4583 158.55 32.428 157.717 34.1136C156.893 35.7992 155.737 37.1108 154.251 38.0483C152.773 38.9858 151.05 39.4545 149.08 39.4545ZM149.08 36.4432C150.576 36.4432 151.808 36.0597 152.773 35.2926C153.739 34.5256 154.454 33.517 154.918 32.267C155.382 31.017 155.614 29.6629 155.614 28.2045C155.614 26.7462 155.382 25.3873 154.918 24.1278C154.454 22.8684 153.739 21.8504 152.773 21.0739C151.808 20.2973 150.576 19.9091 149.08 19.9091C147.584 19.9091 146.353 20.2973 145.387 21.0739C144.421 21.8504 143.706 22.8684 143.242 24.1278C142.778 25.3873 142.546 26.7462 142.546 28.2045C142.546 29.6629 142.778 31.017 143.242 32.267C143.706 33.517 144.421 34.5256 145.387 35.2926C146.353 36.0597 147.584 36.4432 149.08 36.4432ZM164.084 39V17.1818H167.436V39H164.084ZM165.788 13.5455C165.135 13.5455 164.571 13.3229 164.098 12.8778C163.634 12.4328 163.402 11.8977 163.402 11.2727C163.402 10.6477 163.634 10.1127 164.098 9.66761C164.571 9.22254 165.135 9 165.788 9C166.442 9 167 9.22254 167.464 9.66761C167.938 10.1127 168.175 10.6477 168.175 11.2727C168.175 11.8977 167.938 12.4328 167.464 12.8778C167 13.3229 166.442 13.5455 165.788 13.5455ZM176.928 25.875V39H173.576V17.1818H176.815V20.5909H177.099C177.61 19.483 178.387 18.5928 179.428 17.9205C180.47 17.2386 181.815 16.8977 183.462 16.8977C184.94 16.8977 186.232 17.2008 187.34 17.8068C188.448 18.4034 189.31 19.3125 189.925 20.5341C190.541 21.7462 190.849 23.2803 190.849 25.1364V39H187.496V25.3636C187.496 23.6496 187.051 22.3144 186.161 21.358C185.271 20.392 184.049 19.9091 182.496 19.9091C181.426 19.9091 180.47 20.1411 179.627 20.6051C178.794 21.0691 178.136 21.7462 177.653 22.6364C177.17 23.5265 176.928 24.6061 176.928 25.875ZM206.463 17.1818V20.0227H195.156V17.1818H206.463ZM198.452 11.9545H201.804V32.75C201.804 33.697 201.941 34.4072 202.216 34.8807C202.5 35.3447 202.86 35.6572 203.295 35.8182C203.741 35.9697 204.209 36.0455 204.702 36.0455C205.071 36.0455 205.374 36.0265 205.611 35.9886C205.848 35.9413 206.037 35.9034 206.179 35.875L206.861 38.8864C206.634 38.9716 206.316 39.0568 205.909 39.142C205.502 39.2367 204.986 39.2841 204.361 39.2841C203.414 39.2841 202.486 39.0805 201.577 38.6733C200.677 38.2661 199.929 37.6458 199.332 36.8125C198.745 35.9792 198.452 34.928 198.452 33.6591V11.9545Z" fill="#F3EAF3"/>
<rect width="15.0551" height="3" transform="matrix(1 0 0 -1 3.54236 13)" fill="#5196AD"/>
<rect width="14.1695" height="3" transform="matrix(1 0 0 -1 3.54236 26)" fill="#5196AD"/>
<rect width="14" height="2.65678" transform="matrix(0 -1 -1 0 6.1991 39)" fill="#5196AD"/>
<path d="M115 25.25L115 13.033H119.047V25.25H117.437H115Z" fill="#303B3E"/>
</svg>
